<svg width="420.71002197265625px" height="120.8px" xmlns="http://www.w3.org/2000/svg" viewBox="39.644989013671875 14.600000000000001 420.71002197265625 120.8" style="background: rgba(0, 0, 0, 0);" preserveAspectRatio="xMidYMid"><defs><linearGradient id="editing-rainbow-gradient" x1="0" x2="1" y1="0.5" y2="0.5" gradientUnits="objectBoundingBox"><stop offset="0.00" stop-color="#f00"></stop><stop offset="0.17" stop-color="#f90"></stop><stop offset="0.34" stop-color="#ff4"></stop><stop offset="0.51" stop-color="#9f0"></stop><stop offset="0.68" stop-color="#09f"></stop><stop offset="0.85" stop-color="#00f"></stop><stop offset="1.00" stop-color="#90f"></stop></linearGradient><filter id="editing-rainbow" x="-100%" y="-100%" width="300%" height="300%"><feMorphology operator="dilate" radius="1,2" in="SourceGraphic" result="dilate"></feMorphology><feColorMatrix in="dilate" result="color" type="matrix" values="0.7 0 0 0 0  0 0.7 0 0 0  0 0 0.7 0 0  0 0 0 1 0"></feColorMatrix><feOffset dy="2" result="offset"></feOffset><feGaussianBlur stdDeviation="3"></feGaussianBlur><feOffset dy="3"></feOffset><feColorMatrix result="blur" type="matrix" values="0.7 0 0 0 0  0 0.7 0 0 0  0 0 0.7 0 0  0 0 0 1 0"></feColorMatrix><feMerge><feMergeNode in="blur"></feMergeNode><feMergeNode in="offset"></feMergeNode><feMergeNode in="SourceGraphic"></feMergeNode></feMerge></filter></defs><g filter="url(#editing-rainbow)"><g transform="translate(103.60001587867737, 99)"><path d="M14.21 0L0.51 0L8.32-42.05L8.32-42.05Q14.66-42.75 23.90-42.75L23.90-42.75L23.90-42.75Q33.15-42.75 37.44-40.06L37.44-40.06L37.44-40.06Q41.73-37.38 41.73-31.97L41.73-31.97L41.73-31.97Q41.73-26.56 38.94-23.17L38.94-23.17L38.94-23.17Q36.16-19.78 31.36-18.69L31.36-18.69L31.36-18.69Q32.45-13.38 34.94-9.09L34.94-9.09L34.94-9.09Q37.25-5.06 39.94-3.78L39.94-3.78L39.94-3.78Q38.98-1.09 37.02 0.10L37.02 0.10L37.02 0.10Q35.07 1.28 32.29 1.28L32.29 1.28L32.29 1.28Q29.50 1.28 27.33-0.35L27.33-0.35L27.33-0.35Q25.15-1.98 23.42-4.99L23.42-4.99L23.42-4.99Q19.78-11.52 19.39-21.82L19.39-21.82L19.84-21.82L19.84-21.82Q24.58-21.95 26.94-24.42L26.94-24.42L26.94-24.42Q29.31-26.88 29.31-32.06L29.31-32.06L29.31-32.06Q29.31-38.53 23.87-38.78L23.87-38.78L22.46-38.78L22.46-38.78Q21.89-38.78 21.57-38.72L21.57-38.72L14.21 0ZM47.46-1.92L47.46-1.92L47.46-1.92Q45.95-3.58 45.28-6.21L45.28-6.21L45.28-6.21Q44.61-8.83 44.61-13.12L44.61-13.12L44.61-13.12Q44.61-17.41 46.08-21.31L46.08-21.31L46.08-21.31Q47.55-25.22 50.24-28.03L50.24-28.03L50.24-28.03Q55.74-33.92 64.83-33.92L64.83-33.92L64.83-33.92Q68.10-33.92 70.46-32.83L70.46-32.83L81.41-33.92L76.67-8.96L76.67-8.96Q76.48-8.19 76.48-6.78L76.48-6.78L76.48-6.78Q76.48-5.38 77.34-4.48L77.34-4.48L77.34-4.48Q78.21-3.58 79.49-3.46L79.49-3.46L79.49-3.46Q78.85-1.28 76.51 0L76.51 0L76.51 0Q74.18 1.28 71.55 1.28L71.55 1.28L71.55 1.28Q68.93 1.28 67.17 0.29L67.17 0.29L67.17 0.29Q65.41-0.70 64.90-2.37L64.90-2.37L64.90-2.37Q63.87-0.77 61.70 0.26L61.70 0.26L61.70 0.26Q59.52 1.28 56.61 1.28L56.61 1.28L56.61 1.28Q53.70 1.28 51.33 0.51L51.33 0.51L51.33 0.51Q48.96-0.26 47.46-1.92ZM60.96-27.90L60.96-27.90L60.96-27.90Q60.22-26.75 59.58-24.80L59.58-24.80L59.58-24.80Q58.94-22.85 57.89-17.63L57.89-17.63L57.89-17.63Q56.83-12.42 56.83-8.70L56.83-8.70L56.83-8.70Q56.83-4.99 57.41-3.90L57.41-3.90L57.41-3.90Q57.98-2.82 59.01-2.82L59.01-2.82L59.01-2.82Q61.06-2.82 62.56-4.77L62.56-4.77L62.56-4.77Q64.06-6.72 64.64-10.18L64.64-10.18L68.03-28.93L68.03-28.93Q66.69-30.08 65.12-30.08L65.12-30.08L65.12-30.08Q63.55-30.08 62.62-29.57L62.62-29.57L62.62-29.57Q61.70-29.06 60.96-27.90ZM108.10-31.55L108.10-31.55L108.10-31.55Q110.21-33.92 113.86-33.92L113.86-33.92L113.86-33.92Q116.10-33.92 117.82-32.70L117.82-32.70L117.82-32.70Q119.55-31.49 119.55-29.22L119.55-29.22L119.55-29.22Q119.55-26.94 118.85-24.51L118.85-24.51L118.85-24.51Q118.14-22.08 117.06-19.58L117.06-19.58L117.06-19.58Q114.88-14.72 111.87-10.69L111.87-10.69L111.87-10.69Q107.65-4.86 103.58-1.79L103.58-1.79L103.58-1.79Q99.52 1.28 95.10 1.28L95.10 1.28L95.10 1.28Q91.52 1.28 89.34 0.45L89.34 0.45L89.34 0.45Q88.96-12.99 88.48-17.79L88.48-17.79L88.48-17.79Q88.00-22.59 87.62-25.22L87.62-25.22L87.62-25.22Q86.98-30.34 85.06-31.55L85.06-31.55L85.06-31.55Q86.53-32.83 87.97-33.38L87.97-33.38L87.97-33.38Q89.41-33.92 92.38-33.92L92.38-33.92L92.38-33.92Q95.36-33.92 97.47-31.58L97.47-31.58L97.47-31.58Q99.58-29.25 100.00-25.12L100.00-25.12L100.00-25.12Q100.42-20.99 100.42-16L100.42-16L100.42-16Q100.42-11.01 100.03-4.99L100.03-4.99L100.03-4.99Q102.02-6.40 104.13-10.69L104.13-10.69L104.13-10.69Q107.01-16.64 108.03-23.81L108.03-23.81L108.03-23.81Q108.35-25.98 108.35-28.29L108.35-28.29L108.35-28.29Q108.35-30.59 108.10-31.55ZM136.64-3.52L136.64-3.52L136.64-3.52Q134.66 1.28 128.32 1.28L128.32 1.28L128.32 1.28Q125.06 1.28 123.01-0.96L123.01-0.96L123.01-0.96Q121.28-2.94 121.28-4.93L121.28-4.93L121.28-4.93Q121.28-10.11 123.65-20.22L123.65-20.22L126.02-32.64L139.01-33.92L135.10-13.70L135.10-13.70Q134.02-8.96 134.02-7.30L134.02-7.30L134.02-7.30Q134.02-3.65 136.64-3.52ZM127.17-41.54L127.17-41.54L127.17-41.54Q127.17-44.03 129.25-45.38L129.25-45.38L129.25-45.38Q131.33-46.72 134.34-46.72L134.34-46.72L134.34-46.72Q137.34-46.72 139.17-45.38L139.17-45.38L139.17-45.38Q140.99-44.03 140.99-41.54L140.99-41.54L140.99-41.54Q140.99-39.04 138.98-37.76L138.98-37.76L138.98-37.76Q136.96-36.48 133.95-36.48L133.95-36.48L133.95-36.48Q130.94-36.48 129.06-37.76L129.06-37.76L129.06-37.76Q127.17-39.04 127.17-41.54ZM169.15 1.28L169.15 1.28L169.15 1.28Q161.41 1.28 161.41-4.74L161.41-4.74L161.41-4.74Q161.47-6.40 161.98-9.22L161.98-9.22L163.14-15.10L163.14-15.10Q164.86-23.42 164.86-25.28L164.86-25.28L164.86-25.28Q164.86-28.99 162.69-28.99L162.69-28.99L162.69-28.99Q159.04-28.99 157.12-19.46L157.12-19.46L153.34 0L140.48 1.28L147.14-32.70L157.63-33.92L156.61-27.65L156.61-27.65Q159.62-33.92 168.83-33.92L168.83-33.92L168.83-33.92Q173.31-33.92 175.20-32.03L175.20-32.03L175.20-32.03Q177.09-30.14 177.09-25.92L177.09-25.92L177.09-25.92Q177.09-21.95 175.04-12.67L175.04-12.67L175.04-12.67Q174.08-8.51 174.08-6.94L174.08-6.94L174.08-6.94Q174.08-5.38 174.94-4.48L174.94-4.48L174.94-4.48Q175.81-3.58 177.09-3.46L177.09-3.46L177.09-3.46Q176.45-1.28 174.24 0L174.24 0L174.24 0Q172.03 1.28 169.15 1.28ZM202.37-33.92L202.37-33.92L202.37-33.92Q204.67-33.92 206.46-33.41L206.46-33.41L206.46-33.41Q206.53-33.66 206.66-34.37L206.66-34.37L206.98-36.35L206.98-36.35Q207.23-37.63 207.62-39.74L207.62-39.74L208.64-44.80L221.38-46.08L214.27-8.96L214.27-8.96Q214.21-8.58 214.21-7.94L214.21-7.94L214.21-6.91L214.21-6.91Q214.21-5.50 214.91-4.45L214.91-4.45L214.91-4.45Q215.62-3.39 216.77-3.39L216.77-3.39L216.77-3.39Q215.49-0.38 211.58 0.90L211.58 0.90L211.58 0.90Q210.24 1.28 208.35 1.28L208.35 1.28L208.35 1.28Q206.46 1.28 204.74 0.29L204.74 0.29L204.74 0.29Q203.01-0.70 202.50-2.37L202.50-2.37L202.50-2.37Q201.47-0.70 199.42 0.29L199.42 0.29L199.42 0.29Q197.38 1.28 194.40 1.28L194.40 1.28L194.40 1.28Q191.42 1.28 188.96 0.51L188.96 0.51L188.96 0.51Q186.50-0.26 184.96-1.92L184.96-1.92L184.96-1.92Q182.14-5.18 182.14-12.61L182.14-12.61L182.14-12.61Q182.14-22.21 187.78-28.03L187.78-28.03L187.78-28.03Q193.41-33.92 202.37-33.92ZM201.92-30.08L201.92-30.08L201.92-30.08Q199.55-30.08 198.27-27.52L198.27-27.52L198.27-27.52Q196.99-24.96 195.68-18.62L195.68-18.62L195.68-18.62Q194.37-12.29 194.37-6.59L194.37-6.59L194.37-6.59Q194.37-2.69 196.67-2.69L196.67-2.69L196.67-2.69Q198.72-2.69 200.16-4.74L200.16-4.74L200.16-4.74Q201.60-6.78 202.18-10.18L202.18-10.18L205.63-28.93L205.63-28.93Q204.29-30.08 201.92-30.08ZM242.24-17.98L242.24-17.98L242.24-17.98Q244.54-22.08 244.54-26.24L244.54-26.24L244.54-26.24Q244.54-28.99 242.56-28.99L242.56-28.99L242.56-28.99Q241.02-28.99 239.42-26.37L239.42-26.37L239.42-26.37Q237.76-23.74 237.25-20.35L237.25-20.35L233.92 0L220.67 1.28L227.20-32.64L237.76-33.92L236.61-27.46L236.61-27.46Q239.74-33.92 246.78-33.92L246.78-33.92L246.78-33.92Q250.50-33.92 252.51-32L252.51-32L252.51-32Q254.53-30.08 254.53-26.14L254.53-26.14L254.53-26.14Q254.53-22.21 251.94-19.71L251.94-19.71L251.94-19.71Q249.34-17.22 244.93-17.22L244.93-17.22L244.93-17.22Q243.01-17.22 242.24-17.98ZM258.34-1.92L258.34-1.92L258.34-1.92Q256.83-3.58 256.16-6.21L256.16-6.21L256.16-6.21Q255.49-8.83 255.49-13.12L255.49-13.12L255.49-13.12Q255.49-17.41 256.96-21.31L256.96-21.31L256.96-21.31Q258.43-25.22 261.12-28.03L261.12-28.03L261.12-28.03Q266.62-33.92 275.71-33.92L275.71-33.92L275.71-33.92Q278.98-33.92 281.34-32.83L281.34-32.83L292.29-33.92L287.55-8.96L287.55-8.96Q287.36-8.19 287.36-6.78L287.36-6.78L287.36-6.78Q287.36-5.38 288.22-4.48L288.22-4.48L288.22-4.48Q289.09-3.58 290.37-3.46L290.37-3.46L290.37-3.46Q289.73-1.28 287.39 0L287.39 0L287.39 0Q285.06 1.28 282.43 1.28L282.43 1.28L282.43 1.28Q279.81 1.28 278.05 0.29L278.05 0.29L278.05 0.29Q276.29-0.70 275.78-2.37L275.78-2.37L275.78-2.37Q274.75-0.77 272.58 0.26L272.58 0.26L272.58 0.26Q270.40 1.28 267.49 1.28L267.49 1.28L267.49 1.28Q264.58 1.28 262.21 0.51L262.21 0.51L262.21 0.51Q259.84-0.26 258.34-1.92ZM271.84-27.90L271.84-27.90L271.84-27.90Q271.10-26.75 270.46-24.80L270.46-24.80L270.46-24.80Q269.82-22.85 268.77-17.63L268.77-17.63L268.77-17.63Q267.71-12.42 267.71-8.70L267.71-8.70L267.71-8.70Q267.71-4.99 268.29-3.90L268.29-3.90L268.29-3.90Q268.86-2.82 269.89-2.82L269.89-2.82L269.89-2.82Q271.94-2.82 273.44-4.77L273.44-4.77L273.44-4.77Q274.94-6.72 275.52-10.18L275.52-10.18L278.91-28.93L278.91-28.93Q277.57-30.08 276-30.08L276-30.08L276-30.08Q274.43-30.08 273.50-29.57L273.50-29.57L273.50-29.57Q272.58-29.06 271.84-27.90Z" fill="url(#editing-rainbow-gradient)"></path></g></g><style>text {
  font-size: 64px;
  font-family: Arial Black;
  dominant-baseline: central;
  text-anchor: middle;
}</style></svg>